{"title":"The Fast &amp; the Furious(2001)MPEG-4[MPEG-4[DaScubaDude]","uid":13715018,"size":1069215989,"categoryP":"video","categoryS":"movies","magnet":"?xt=urn:btih:1ec1534a38ec929fc3b1a30a2e9aae1bbb80ebf8&amp;dn=The+Fast+%26amp%3B+the+Furious%282001%29MPEG-4%5BMPEG-4%5BDaScubaDude%5D&amp;tr=udp%3A%2F%2Ftracker.leechers-paradise.org%3A6969&amp;tr=udp%3A%2F%2Fzer0day.ch%3A1337&amp;tr=udp%3A%2F%2Fopen.demonii.com%3A1337&amp;tr=udp%3A%2F%2Ftracker.coppersurfer.tk%3A6969&amp;tr=udp%3A%2F%2Fexodus.desync.com%3A6969","seeders":0,"leechers":0,"uploader":"dascuba","files":1,"time":1456899879,"description":"The Fast and the Furious (2001)\r\nPG-13 | 1h 46min | Action, Crime, Thriller | 22 June 2001 (USA)\r\nLos Angeles police officer Brian O'Connor must decide where his loyalties really lie when he becomes enamored with the street racing world he has been sent undercover to destroy.\r\nDirector: Rob Cohen\r\nWriters: Ken Li (magazine article &quot;Racer X&quot;), Gary Scott Thompson (screen story) | 3 more credits »\r\nStars: Vin Diesel, Paul Walker, Michelle Rodriguez \r\n\r\nGeneral\r\nComplete name                            : The Fast &amp; the FuriousFAST_AND_THE_FURIOUS_Title1.mp4\r\nFormat                                   : MPEG-4\r\nFormat profile                           : Base Media\r\nCodec ID                                 : isom\r\nFile size                                : 1 020 MiB\r\nDuration                                 : 1h 46mn\r\nOverall bit rate mode                    : Variable\r\nOverall bit rate                         : 1 334 Kbps\r\nMovie name                               : FAST_AND_THE_FURIOUS\r\nGenre                                    : Crime\r\nWriting application                      : Lavf54.6.100\r\n\r\nVideo\r\nID                                       : 1\r\nFormat                                   : AVC\r\nFormat/Info                              : Advanced Video Codec\r\nFormat profile                           :   \r\nFormat settings, CABAC                   : No\r\nFormat settings, ReFrames                : 6 frames\r\nCodec ID                                 : avc1\r\nCodec ID/Info                            : Advanced Video Coding\r\nDuration                                 : 1h 46mn\r\nBit rate                                 : 1 200 Kbps\r\nWidth                                    : 720 pixels\r\nHeight                                   : 404 pixels\r\nDisplay aspect ratio                     : 16:9\r\nFrame rate mode                          : Constant\r\nFrame rate                               : 29.970 fps\r\nColor space                              : YUV\r\nChroma subsampling                       : 4:2:0\r\nBit depth                                : 8 bits\r\nScan type                                : Progressive\r\nBits/(Pixel*Frame)                       : 0.138\r\nStream size                              : 917 MiB (90%)\r\n\r\nAudio\r\nID                                       : 2\r\nFormat                                   : AAC\r\nFormat/Info                              : Advanced Audio Codec\r\nFormat profile                           : LC\r\nCodec ID                                 : 40\r\nDuration                                 : 1h 46mn\r\nBit rate mode                            : Variable\r\nBit rate                                 : 128 Kbps\r\nMaximum bit rate                         : 141 Kbps\r\nChannel(s)                               : 2 channels\r\nChannel positions                        : Front: L R\r\nSampling rate                            : 44.1 KHz\r\nCompression mode                         : Lossy\r\nStream size                              : 97.8 MiB (10%)","torrent":{"xt":"urn:btih:1ec1534a38ec929fc3b1a30a2e9aae1bbb80ebf8","amp;dn":"The+Fast+%26amp%3B+the+Furious%282001%29MPEG-4%5BMPEG-4%5BDaScubaDude%5D","amp;tr":["udp%3A%2F%2Ftracker.leechers-paradise.org%3A6969","udp%3A%2F%2Fzer0day.ch%3A1337","udp%3A%2F%2Fopen.demonii.com%3A1337","udp%3A%2F%2Ftracker.coppersurfer.tk%3A6969","udp%3A%2F%2Fexodus.desync.com%3A6969"],"infoHash":"1ec1534a38ec929fc3b1a30a2e9aae1bbb80ebf8","infoHashBuffer":{"type":"Buffer","data":[30,193,83,74,56,236,146,159,195,177,163,10,46,154,174,27,187,128,235,248]},"announce":[],"urlList":[]}}